<svg width="158" height="48" viewBox="0 0 158 48" fill="none" xmlns="http://www.w3.org/2000/svg">
<path d="M0 8C0 3.58172 3.58172 0 8 0H29V48H8C3.58172 48 0 44.4183 0 40V8Z" fill="#946CE6"/>
<g clip-path="url(#clip0_2001_11)">
<path d="M41.2812 22.9538C40.9391 22.8309 40.6297 22.7663 40.4441 22.8206C40.5442 22.9959 40.6668 23.1572 40.8087 23.3006L41.2812 22.9538Z" fill="#946CE6"/>
<path d="M62.6131 30.8822C62.1978 30.6216 61.7534 30.5878 61.0465 30.7172C61.0137 30.7228 60.9819 30.7172 60.9528 30.7172C60.9344 30.7186 60.9159 30.7186 60.8975 30.7172C59.8662 30.7988 59.0281 29.8388 58.865 29.6344C58.7331 29.4681 58.6725 29.2562 58.6966 29.0453C58.7207 28.8344 58.8274 28.6417 58.9934 28.5094C59.1605 28.3797 59.3717 28.3205 59.5819 28.3443C59.792 28.3681 59.9846 28.4731 60.1184 28.6369C60.2213 28.7604 60.3376 28.872 60.4653 28.9697C61.4769 26.7572 62.1144 24.2109 60.3462 21.6272C57.469 17.4206 53.51 15.3253 48.2422 15.2213C46.6484 15.1903 44.7481 15.2653 42.7306 15.3441C38.0506 15.5316 34.7309 15.6009 32.8644 15.0272C32.8447 15.0272 32.8259 15.0131 32.8053 15.0066C32.2681 14.835 31.8462 14.6091 31.5612 14.31C31.4212 14.1554 31.347 13.9523 31.3544 13.7438C31.3619 13.5353 31.4504 13.338 31.6012 13.1938C31.752 13.0496 31.9531 12.97 32.1617 12.9718C32.3703 12.9737 32.5699 13.0569 32.7181 13.2038C32.7618 13.2423 32.8088 13.2769 32.8587 13.3069C33.5647 12.6881 34.6156 12.165 35.5775 11.6972L35.8944 11.5434C34.8706 11.6662 33.8656 11.9137 32.9019 12.2803C31.4881 12.8203 30.8394 13.3875 30.6969 13.7381C30.0978 15.2381 32.8025 16.575 33.995 17.0794C35.6581 17.7825 40.8097 18.7669 43.0381 18.9872C44.4444 19.125 45.3209 19.5497 45.8281 19.8863C47.3281 18.9366 48.5037 18.2381 48.8506 18.0347C49.2097 17.7863 49.7215 17.9409 49.9456 18.3159C50.0535 18.4987 50.0845 18.7169 50.0318 18.9225C49.9791 19.1282 49.8469 19.3045 49.6644 19.4128C45.3753 21.9375 38.6609 26.3888 37.7309 28.3209C37.4065 29.0625 37.2528 30.4284 37.9297 31.755C38.8672 33.5906 41.1715 34.9575 44.5953 35.7056C52.189 37.3669 57.5675 33.9966 58.7909 32.3025C58.6681 32.2133 58.5574 32.1083 58.4619 31.9903C58.3493 31.82 58.306 31.6132 58.3408 31.4121C58.3757 31.2109 58.486 31.0307 58.6493 30.9082C58.8126 30.7858 59.0165 30.7303 59.2194 30.7531C59.4222 30.776 59.6087 30.8755 59.7406 31.0313C59.9019 31.2272 60.7494 31.485 61.2565 31.6397C61.5303 31.7241 61.805 31.8084 62.059 31.8984C62.434 32.0288 62.8437 32.0213 63.1278 31.8788C63.1854 31.8538 63.2374 31.8176 63.2807 31.7721C63.324 31.7267 63.3578 31.6731 63.38 31.6144C63.4344 31.4363 63.1634 31.23 62.6131 30.8822ZM42.5 28.875C42.3317 28.875 42.1671 28.8251 42.0272 28.7316C41.8872 28.6381 41.7781 28.5052 41.7136 28.3497C41.6492 28.1942 41.6323 28.0231 41.665 27.858C41.6978 27.6929 41.7788 27.5412 41.8977 27.4222C42.0167 27.3031 42.1683 27.2219 42.3333 27.189C42.4984 27.156 42.6695 27.1727 42.8251 27.237C42.9807 27.3013 43.1137 27.4103 43.2073 27.5501C43.301 27.69 43.351 27.8545 43.3512 28.0228C43.3514 28.1347 43.3294 28.2455 43.2867 28.3489C43.244 28.4523 43.1813 28.5462 43.1022 28.6253C43.0232 28.7045 42.9293 28.7673 42.826 28.8101C42.7226 28.853 42.6119 28.875 42.5 28.875ZM50.5269 31.4288C50.3585 31.4288 50.194 31.3789 50.054 31.2854C49.9141 31.1919 49.805 31.059 49.7405 30.9035C49.676 30.748 49.6591 30.5769 49.6919 30.4118C49.7247 30.2467 49.8056 30.095 49.9246 29.9759C50.0436 29.8568 50.1952 29.7757 50.3602 29.7427C50.5253 29.7098 50.6964 29.7265 50.852 29.7908C51.0075 29.8551 51.1405 29.964 51.2342 30.1039C51.3278 30.2438 51.3779 30.4082 51.3781 30.5766C51.3779 30.8022 51.2881 31.0184 51.1285 31.1779C50.9688 31.3373 50.7525 31.4269 50.5269 31.4269V31.4288Z" fill="#946CE6"/>
<path d="M63.8 6.10567e-08H30.2C29.2544 -0.000123082 28.3181 0.186026 27.4445 0.547817C26.5709 0.909607 25.7772 1.43995 25.1086 2.10856C24.44 2.77716 23.9096 3.57093 23.5478 4.44453C23.186 5.31813 22.9999 6.25445 23 7.2V40.8C22.9999 41.7456 23.186 42.6819 23.5478 43.5555C23.9096 44.4291 24.44 45.2228 25.1086 45.8914C25.7772 46.56 26.5709 47.0904 27.4445 47.4522C28.3181 47.814 29.2544 48.0001 30.2 48H63.8C64.7456 48.0001 65.6819 47.814 66.5555 47.4522C67.4291 47.0904 68.2228 46.56 68.8914 45.8914C69.56 45.2228 70.0904 44.4291 70.4522 43.5555C70.814 42.6819 71.0001 41.7456 71 40.8V7.2C71.0001 6.25445 70.814 5.31813 70.4522 4.44453C70.0904 3.57093 69.56 2.77716 68.8914 2.10856C68.2228 1.43995 67.4291 0.909607 66.5555 0.547817C65.6819 0.186026 64.7456 -0.000123082 63.8 6.10567e-08ZM64.9119 32.0831C64.8287 32.3406 64.6954 32.5791 64.5195 32.7848C64.3436 32.9904 64.1287 33.1592 63.8872 33.2812L63.8497 33.3009C63.1822 33.6375 62.315 33.6759 61.5312 33.4022C61.2941 33.3178 61.0409 33.2409 60.7878 33.1641L60.2544 32.9953C59.6863 33.9188 58.5163 34.9537 56.8681 35.8209C53.9084 37.3791 49.4337 38.3972 44.2531 37.2666C40.2884 36.3994 37.6812 34.7878 36.5028 32.4769C35.5728 30.6563 35.7762 28.7897 36.2741 27.6497C36.7203 26.7216 37.9794 25.5178 39.5366 24.2747C39.1428 23.8191 38.7922 23.2547 38.8072 22.6809C38.8138 22.4502 38.8772 22.2247 38.9916 22.0242C39.1061 21.8238 39.2681 21.6546 39.4634 21.5316C40.5209 20.8106 41.9366 21.3928 42.8028 21.8859C43.3016 21.5447 43.7984 21.21 44.2822 20.8922C43.8316 20.7295 43.3617 20.6264 42.8844 20.5856C40.775 20.3766 35.3094 19.3763 33.3734 18.5569C28.6691 16.5675 28.7459 14.3166 29.2109 13.1503C30.0312 11.0813 34.625 9.85313 36.7466 9.90094C37.7563 9.92344 38.3703 10.2347 38.5766 10.8263C38.9694 11.8397 37.7816 12.4106 36.2741 13.1447C35.8794 13.3322 35.4247 13.5581 34.9972 13.7897C37.1413 13.9669 40.295 13.8441 42.665 13.7503C44.7059 13.6687 46.6344 13.5928 48.2703 13.6247C54.0144 13.7391 58.5219 16.125 61.6663 20.7281C63.7213 23.7347 63.1175 26.7609 62.1687 29.0719C62.6009 29.1099 63.0182 29.2483 63.3875 29.4759C64.1187 29.9372 65.3384 30.7013 64.9119 32.0831Z" fill="#946CE6"/>
</g>
<path d="M150 0C154.418 0 158 3.58172 158 8V40C158 44.4183 154.418 48 150 48H64V0H150ZM99.168 16.416C99.0103 17.6913 98.7886 18.8965 98.5059 20.0322H95.9082C95.938 19.9743 95.97 19.9165 96 19.8564C96.2027 19.4511 96.3948 19.0182 96.5762 18.5596C96.7681 18.0904 96.9336 17.6265 97.0723 17.168L95.4561 16.8965C95.3601 17.3123 95.2372 17.7178 95.0879 18.1123C94.9493 18.5068 94.8105 18.8479 94.6719 19.1357C94.5332 19.4237 94.4322 19.6268 94.3682 19.7441C94.2723 19.9146 94.171 20.0585 94.0645 20.1758C93.9578 20.2824 93.8508 20.3577 93.7441 20.4004C93.7974 20.5176 93.856 20.6667 93.9199 20.8477C93.9839 21.0183 94.0424 21.1897 94.0957 21.3604L94.2402 21.7764C94.3149 21.6804 94.4962 21.6051 94.7842 21.5518C95.0721 21.4985 95.4559 21.4717 95.9355 21.4717H98.1025C98.0841 21.5305 98.0667 21.59 98.0479 21.6484C97.5359 23.2269 96.8265 24.624 95.9199 25.8398C95.0133 27.0558 93.8404 28.0752 92.4004 28.8965C92.5283 28.9818 92.6673 29.0989 92.8164 29.248C92.9657 29.3973 93.1045 29.552 93.2324 29.7119C93.3602 29.861 93.4556 29.9892 93.5195 30.0957C94.6822 29.413 95.6797 28.6235 96.5117 27.7275C97.13 27.0537 97.6745 26.321 98.1455 25.5293C98.5352 26.21 98.9709 26.8371 99.4561 27.4082C99.7083 27.7014 99.9767 27.9779 100.257 28.2422C99.7233 28.5848 99.158 28.8896 98.5596 29.1523C97.6851 29.5362 96.7733 29.8405 95.8242 30.0645C95.9628 30.2244 96.1126 30.4327 96.2725 30.6885C96.4323 30.9442 96.5494 31.1735 96.624 31.376C97.6692 31.0987 98.6611 30.736 99.5996 30.2881C100.261 29.9835 100.882 29.6302 101.466 29.2324C101.795 29.4656 102.137 29.6854 102.496 29.8877C103.68 30.549 105.04 31.0453 106.576 31.376C106.651 31.2374 106.741 31.0826 106.848 30.9121C106.954 30.7415 107.066 30.576 107.184 30.416C107.312 30.256 107.429 30.1223 107.536 30.0156C105.66 29.6851 104.047 29.1033 102.694 28.2715C103.296 27.7279 103.839 27.1155 104.32 26.4316C104.928 25.5571 105.419 24.5543 105.792 23.4238L104.736 22.9443L104.448 23.0078H99.3564C99.5462 22.5132 99.718 22.0013 99.8711 21.4717H106.992V20.0322H100.246C100.493 18.9793 100.694 17.8648 100.848 16.6885L99.168 16.416ZM89.4561 16.7041C88.7201 16.8214 87.8771 16.9284 86.9277 17.0244C85.9892 17.1097 84.9973 17.189 83.9521 17.2637C82.9068 17.3277 81.8449 17.3871 80.7676 17.4404C79.7011 17.4831 78.6666 17.5148 77.6641 17.5361C77.728 17.6961 77.7925 17.8884 77.8564 18.1123C77.9203 18.336 77.9571 18.5386 77.9678 18.7197C78.768 18.7111 79.5926 18.6944 80.4414 18.6719L79.4561 19.0723C79.6053 19.4135 79.7491 19.7921 79.8877 20.208C79.9181 20.2905 79.9463 20.3706 79.9727 20.4482H77.2158V23.2637H78.4639V24.5117H80.9795C80.6975 25.3936 80.3513 26.1945 79.9355 26.9121C79.1569 28.2559 78.0482 29.3072 76.6084 30.0645C76.7043 30.1497 76.8165 30.2619 76.9443 30.4004C77.0721 30.5495 77.1894 30.6985 77.2959 30.8477C77.4131 30.9969 77.4984 31.1199 77.5518 31.2158C79.0769 30.3199 80.2718 29.1309 81.1357 27.6484C81.2334 27.4809 81.3266 27.3079 81.418 27.1318C81.9513 27.7667 82.5769 28.3288 83.2959 28.8164C83.4051 28.8892 83.5164 28.9597 83.6289 29.0293C83.5142 29.0713 83.3982 29.113 83.2803 29.1523C82.2564 29.4936 81.1843 29.7493 80.0645 29.9199C80.1391 30.0159 80.2244 30.1388 80.3203 30.2881C80.4163 30.4374 80.5015 30.592 80.5762 30.752C80.6615 30.9119 80.72 31.0507 80.752 31.168C81.9146 30.944 83.035 30.624 84.1123 30.208C84.4458 30.0837 84.7676 29.9443 85.0801 29.7949C85.5117 29.9885 85.9616 30.1651 86.4316 30.3203C87.5943 30.715 88.8375 31.0023 90.1602 31.1836C90.2135 31.045 90.2829 30.8902 90.3682 30.7197C90.4641 30.5598 90.5603 30.4001 90.6562 30.2402C90.7629 30.091 90.859 29.9631 90.9443 29.8564C89.6537 29.7284 88.4263 29.5036 87.2637 29.1836C87.0154 29.1123 86.7735 29.0357 86.5371 28.9561C86.7082 28.8387 86.8769 28.7187 87.04 28.5918C87.904 27.9198 88.5975 27.0986 89.1201 26.1279L88.2881 25.5361L88.0645 25.584H82.1006C82.2286 25.2393 82.3477 24.882 82.457 24.5117H89.584V23.2637H90.832V20.4482H87.8418C87.9397 20.3029 88.0409 20.1487 88.1436 19.9844C88.4208 19.5578 88.6824 19.1307 88.9277 18.7041L87.5996 18.2881C87.5036 18.5226 87.3817 18.7894 87.2324 19.0879C87.0938 19.3759 86.9442 19.6641 86.7842 19.9521C86.6823 20.1287 86.5809 20.2933 86.4834 20.4482H84.9346C84.8656 20.2178 84.7791 19.9452 84.6719 19.6318C84.5332 19.2266 84.3945 18.853 84.2559 18.5117L83.1035 18.9121C83.2422 19.2641 83.3759 19.6534 83.5039 20.0801C83.5437 20.2093 83.5787 20.3324 83.6123 20.4482H81.29C81.2273 20.2344 81.1448 19.9887 81.04 19.7119C80.8972 19.3345 80.7434 18.9869 80.5811 18.668C80.7384 18.6637 80.8966 18.661 81.0557 18.6562C82.1223 18.6136 83.1842 18.5601 84.2402 18.4961C85.3068 18.4214 86.3203 18.3412 87.2803 18.2559C88.2508 18.1599 89.1257 18.0529 89.9043 17.9355L89.4561 16.7041ZM115.072 16.5439V18.8164H109.904V28.0479H111.472V27.0879H115.072V28.416C115.072 29.12 115.147 29.6698 115.296 30.0645C115.445 30.4589 115.707 30.7306 116.08 30.8799C116.453 31.0292 116.966 31.1035 117.616 31.1035H120.944C121.563 31.1035 122.038 30.9975 122.368 30.7842C122.709 30.5708 122.96 30.2182 123.12 29.7275C123.291 29.2369 123.408 28.5808 123.472 27.7598C123.248 27.6958 122.987 27.6055 122.688 27.4883C122.4 27.3603 122.16 27.2266 121.968 27.0879C121.936 27.7492 121.882 28.2614 121.808 28.624C121.744 28.9865 121.638 29.2373 121.488 29.376C121.339 29.5146 121.12 29.584 120.832 29.584H117.76C117.451 29.584 117.216 29.5572 117.056 29.5039C116.907 29.4399 116.805 29.3279 116.752 29.168C116.709 29.008 116.688 28.7681 116.688 28.4482V27.0879H121.92V18.8164H116.688V16.5439H115.072ZM87.0479 26.8799C86.7437 27.2239 86.3898 27.5393 85.9844 27.8242C85.7005 28.0226 85.3995 28.2065 85.083 28.3779C84.7735 28.2339 84.4762 28.0821 84.1924 27.9199C83.6638 27.6079 83.199 27.2603 82.7959 26.8799H87.0479ZM103.667 24.4805C103.447 24.9388 103.192 25.3714 102.896 25.7764C102.47 26.3617 101.983 26.8894 101.438 27.3633C100.469 26.5441 99.6878 25.5837 99.0957 24.4805H103.667ZM115.072 25.6162H111.472V23.6641H115.072V25.6162ZM120.368 25.6162H116.688V23.6641H120.368V25.6162ZM89.5195 21.7275V23.248H82.7803C82.8567 22.9054 82.9295 22.554 82.9922 22.1924L81.5684 22.0156C81.4999 22.4406 81.4176 22.8513 81.3262 23.248H78.4805V21.7275H89.5195ZM115.072 20.2881V22.2559H111.472V20.2881H115.072ZM120.368 20.2881V22.2559H116.688V20.2881H120.368ZM102.736 17.3438C102.95 17.589 103.179 17.8557 103.424 18.1436C103.68 18.4315 103.92 18.7149 104.144 18.9922C104.378 19.2589 104.56 19.4936 104.688 19.6963L105.92 18.8965C105.771 18.6938 105.578 18.464 105.344 18.208C105.12 17.9521 104.88 17.6854 104.624 17.4082C104.368 17.1309 104.128 16.8743 103.904 16.6396L102.736 17.3438Z" fill="#946CE6"/>
<defs>
<clipPath id="clip0_2001_11">
<rect width="48" height="48" fill="white" transform="translate(23)"/>
</clipPath>
</defs>
</svg>
