<svg width="752" height="177" viewBox="0 0 752 177" fill="none" xmlns="http://www.w3.org/2000/svg">
<path d="M72.7943 10.9648L89.5977 40.928C89.6979 41.1074 89.725 41.2994 89.6791 41.5039L89.5789 41.9171L81.7532 58.5077C81.3024 58.6913 80.9309 59.0023 80.6388 59.4405C79.612 60.9973 79.5369 60.9493 80.4134 59.2965C80.5511 59.0336 80.6701 58.756 80.7703 58.4639C81.0666 57.5749 80.933 57.4997 80.3696 58.2385C80.3237 58.3011 80.284 58.3741 80.2506 58.4576C80.1922 58.6079 80.0858 58.6559 79.9313 58.6016L79.1049 58.3136C78.9296 58.2468 78.7522 58.2468 78.5728 58.3136C74.6662 59.6993 70.2963 59.9393 65.4631 59.0336C61.7109 58.3324 57.2597 58.2719 52.1093 58.852C51.1076 58.9647 50.1309 58.827 49.0729 58.971C48.9268 58.9918 48.8308 58.9313 48.7849 58.7894C48.7307 58.6141 48.6075 58.468 48.4155 58.3512C55.6903 43.4009 63.155 28.5445 70.8097 13.7821C71.2813 12.8722 71.9428 11.9331 72.7943 10.9648Z" fill="url(#paint0_linear_40_393)"/>
<path d="M81.7532 58.5077L66.0516 92.1584L64.6054 94.3621C64.5053 94.5123 64.3905 94.5248 64.2611 94.3996C63.2344 93.4272 62.1513 93.2957 61.0119 94.0052C60.8282 94.1221 60.7218 94.2869 60.6926 94.4998C60.511 95.9272 57.1115 96.0837 55.9846 96.2653C55.7342 96.3029 55.6987 96.4114 55.8782 96.5908L56.0284 96.7474C56.2455 96.9602 56.2016 97.0771 55.8969 97.098L54.0814 97.2044C53.8643 97.2169 53.6911 97.1355 53.5618 96.9602C53.0547 96.2778 50.0558 96.7411 49.1856 96.6534C48.9853 96.6326 48.7849 96.6368 48.5846 96.666C48.2883 96.7161 48.0378 96.8329 47.8333 97.0166C47.6163 97.2086 47.3909 97.219 47.1572 97.0479L46.7315 96.7348C46.5854 96.6221 46.4205 96.5575 46.2369 96.5408C44.0916 96.3529 41.94 96.1735 39.7822 96.0024C38.7054 95.9189 38.3235 95.4076 38.6365 94.4685C38.7242 94.2056 38.6303 94.0553 38.3548 94.0177L34.8301 93.5419C34.7675 93.5336 34.757 93.5065 34.7988 93.4605L34.9615 93.2978C35.116 93.1475 35.0868 93.0474 34.8739 92.9973C34.2019 92.8387 33.5508 92.8387 32.9206 92.9973C32.858 93.014 32.8142 92.9931 32.7891 92.9347C32.7098 92.7343 32.5637 92.5695 32.3509 92.4401C32.1714 92.3316 32.1547 92.2022 32.3008 92.0519C32.5387 91.8057 32.5804 91.5198 32.426 91.1942L48.4155 58.3512C48.6075 58.468 48.7307 58.6141 48.7849 58.7894C48.8308 58.9313 48.9268 58.9918 49.0729 58.971C50.1309 58.827 51.1076 58.9647 52.1093 58.852C57.2597 58.2719 61.7109 58.3324 65.4631 59.0336C70.2963 59.9393 74.6662 59.6993 78.5728 58.3136C78.7522 58.2468 78.9296 58.2468 79.1049 58.3136L79.9313 58.6016C80.0858 58.6559 80.1922 58.6079 80.2506 58.4576C80.284 58.3741 80.3237 58.3011 80.3696 58.2385C80.933 57.4997 81.0666 57.5749 80.7703 58.4639C80.6701 58.756 80.5511 59.0336 80.4134 59.2965C79.5369 60.9493 79.612 60.9973 80.6388 59.4405C80.9309 59.0023 81.3024 58.6913 81.7532 58.5077Z" fill="url(#paint1_linear_40_393)"/>
<path d="M32.426 91.1942C32.5804 91.5198 32.5387 91.8057 32.3008 92.0519C32.1547 92.2022 32.1714 92.3316 32.3509 92.4401C32.5637 92.5695 32.7098 92.7343 32.7891 92.9347C32.8142 92.9931 32.858 93.014 32.9206 92.9973C33.5508 92.8387 34.2019 92.8387 34.8739 92.9973C35.0868 93.0474 35.116 93.1475 34.9615 93.2978L34.7988 93.4605C34.757 93.5065 34.7675 93.5336 34.8301 93.5419L38.3548 94.0177C38.6303 94.0553 38.7242 94.2056 38.6365 94.4685C38.3235 95.4076 38.7054 95.9189 39.7822 96.0024C41.94 96.1735 44.0916 96.3529 46.2369 96.5408C46.4205 96.5575 46.5854 96.6221 46.7315 96.7348L47.1572 97.0479C47.3909 97.219 47.6163 97.2086 47.8333 97.0166C48.0378 96.8329 48.2883 96.7161 48.5846 96.666C48.7849 96.6368 48.9853 96.6326 49.1856 96.6534C50.0558 96.7411 53.0547 96.2778 53.5618 96.9602C53.6911 97.1355 53.8643 97.2169 54.0814 97.2044L55.8969 97.098C56.2016 97.0771 56.2455 96.9602 56.0284 96.7474L55.8782 96.5908C55.6987 96.4114 55.7342 96.3029 55.9846 96.2653C57.1115 96.0837 60.511 95.9272 60.6926 94.4998C60.7218 94.2869 60.8282 94.1221 61.0119 94.0052C62.1513 93.2957 63.2344 93.4272 64.2611 94.3996C64.3905 94.5248 64.5053 94.5123 64.6054 94.3621L66.0516 92.1584C59.3653 106.387 52.6915 120.621 46.0303 134.862C45.3917 136.235 44.342 136.924 42.8812 136.928C33.1815 136.94 23.488 136.919 13.8008 136.865C12.9535 136.861 12.3671 136.805 12.0415 136.696C11.2986 136.454 11.0962 135.98 11.4343 135.275L32.426 91.1942Z" fill="url(#paint2_linear_40_393)"/>
<path d="M137.134 68.0301C136.809 68.1052 136.604 67.9466 136.521 67.5543C136.396 66.9282 136.339 66.9386 136.352 67.5856C136.352 67.6398 136.352 67.6983 136.352 67.7609C136.356 67.9111 136.283 67.9758 136.133 67.9549L134.593 67.7609C134.455 67.7442 134.367 67.8026 134.33 67.9362C134.171 68.4996 134.35 68.8085 134.868 68.8627C135.022 68.8794 135.1 68.965 135.1 69.1194C135.1 69.1778 135.1 69.2404 135.1 69.3072C135.104 69.541 134.999 69.6119 134.787 69.5201L131.919 68.2993C131.698 68.2075 131.491 68.2346 131.299 68.3806L130.254 69.1945C130.058 69.349 129.834 69.4157 129.584 69.3949L125.158 68.9879C125.003 68.9712 124.926 69.0422 124.926 69.2008C124.926 69.2717 124.926 69.3406 124.926 69.4074C124.926 69.6787 124.793 69.7997 124.525 69.7705C119.651 69.2613 114.776 68.7479 109.901 68.2304C107.597 67.9842 106.32 68.9191 106.069 71.0352L90.1924 42.4243C90.109 42.274 89.9941 42.1571 89.8481 42.0737L89.5789 41.9172L89.6791 41.504C89.725 41.2994 89.6978 41.1075 89.5977 40.928L72.7943 10.9648C79.612 -2.88362 98.2373 -1.7254 105.556 10.8959C114.387 26.13 124.914 45.1747 137.134 68.0301Z" fill="url(#paint3_linear_40_393)"/>
<path d="M137.134 68.0301L150.595 92.9159C150.298 93.0077 150.025 93.0265 149.774 92.9722C149.645 92.943 149.516 92.9409 149.386 92.966C148.902 93.0578 148.62 93.304 148.541 93.7047C148.487 93.976 148.322 94.0991 148.047 94.0741C146.452 93.9155 145.405 94.5624 144.904 96.0149C144.833 96.2152 144.71 96.3738 144.534 96.4907C144.155 96.7453 143.908 97.1272 143.796 97.6364C143.75 97.8451 143.618 97.9494 143.401 97.9494H140.44C140.227 97.9494 140.058 98.0371 139.933 98.2124L139.194 99.2453C139.065 99.4248 139.111 99.5145 139.332 99.5145H140.553C140.728 99.5145 140.78 99.5939 140.709 99.7525C140.196 100.929 139.303 101.441 138.03 101.286C137.813 101.257 137.625 101.318 137.466 101.468L133.391 105.18C133.157 105.393 133.092 105.349 133.196 105.049C133.221 104.978 133.253 104.907 133.29 104.836C133.445 104.548 133.363 104.431 133.046 104.485L131.913 104.667C131.704 104.705 131.529 104.801 131.387 104.955L128.801 107.785C128.626 107.981 128.434 108.002 128.226 107.847C127.741 107.497 127.364 107.589 127.092 108.123L106.069 71.0352C106.32 68.9191 107.597 67.9842 109.901 68.2304C114.776 68.7479 119.651 69.2613 124.525 69.7705C124.793 69.7997 124.926 69.6787 124.926 69.4074C124.926 69.3406 124.926 69.2717 124.926 69.2008C124.926 69.0422 125.003 68.9712 125.158 68.9879L129.584 69.3949C129.834 69.4157 130.058 69.349 130.254 69.1945L131.299 68.3806C131.491 68.2346 131.698 68.2075 131.919 68.2993L134.787 69.5201C134.999 69.6119 135.104 69.541 135.1 69.3072C135.1 69.2404 135.1 69.1778 135.1 69.1194C135.1 68.965 135.022 68.8794 134.868 68.8627C134.35 68.8085 134.171 68.4996 134.33 67.9362C134.367 67.8026 134.455 67.7442 134.593 67.7609L136.133 67.9549C136.283 67.9758 136.356 67.9111 136.352 67.7609C136.352 67.6983 136.352 67.6398 136.352 67.5856C136.339 66.9386 136.396 66.9282 136.521 67.5543C136.604 67.9466 136.809 68.1052 137.134 68.0301Z" fill="url(#paint4_linear_40_393)"/>
<path d="M150.595 92.9159C161.369 112.574 171.768 132.47 182.949 151.897C184.452 154.501 185.374 156.653 185.716 158.352C187.864 168.969 177.44 177.659 167.123 174.861C164.656 174.197 162.54 170.428 161.425 168.506C152.009 152.225 140.565 132.097 127.092 108.123C127.364 107.589 127.741 107.497 128.226 107.847C128.434 108.002 128.626 107.981 128.801 107.785L131.387 104.955C131.529 104.801 131.704 104.705 131.913 104.667L133.046 104.485C133.363 104.431 133.445 104.548 133.29 104.836C133.253 104.907 133.221 104.978 133.196 105.049C133.092 105.349 133.157 105.393 133.391 105.18L137.466 101.468C137.625 101.318 137.813 101.257 138.03 101.286C139.303 101.441 140.196 100.929 140.709 99.7525C140.78 99.5939 140.728 99.5145 140.553 99.5145H139.332C139.111 99.5145 139.065 99.4248 139.194 99.2453L139.933 98.2124C140.058 98.0371 140.227 97.9494 140.44 97.9494H143.401C143.618 97.9494 143.75 97.8451 143.796 97.6364C143.908 97.1272 144.155 96.7453 144.534 96.4907C144.71 96.3738 144.833 96.2152 144.904 96.0149C145.405 94.5624 146.452 93.9155 148.047 94.0741C148.322 94.0991 148.487 93.976 148.541 93.7047C148.62 93.304 148.902 93.0578 149.386 92.966C149.516 92.9409 149.645 92.943 149.774 92.9722C150.025 93.0265 150.298 93.0077 150.595 92.9159Z" fill="url(#paint5_linear_40_393)"/>
<path d="M111.018 105.131C109.402 105.487 108.039 106.297 106.929 107.561C106.854 107.643 106.873 107.684 106.985 107.684C107.038 107.684 107.092 107.684 107.148 107.684C107.527 107.681 107.567 107.793 107.267 108.022C104.342 110.283 102.165 112.623 98.5534 114.373C98.3846 114.455 98.2065 114.489 98.019 114.474L97.0796 114.401C96.8809 114.386 96.6934 114.425 96.5171 114.519C94.7659 115.43 93.0559 116.422 91.3871 117.494C91.3571 117.517 91.3421 117.547 91.3421 117.584C91.3421 117.637 91.3384 117.689 91.3309 117.742C91.3159 117.873 91.2428 117.944 91.1115 117.956C91.0515 117.959 90.9915 117.958 90.9315 117.95L79.4509 98.2232C79.3918 98.1217 79.3588 98.0071 79.3549 97.8897C79.351 97.7722 79.3763 97.6555 79.4286 97.5498C79.4809 97.4441 79.5585 97.3527 79.6546 97.2838C79.7508 97.2148 79.8624 97.1704 79.9796 97.1544C81.6559 96.9332 83.2346 96.8451 84.7159 96.8901C91.5278 97.1038 98.3621 97.025 105.18 97.1657C107.323 97.205 110.102 103.325 111.018 105.131Z" fill="url(#paint6_linear_40_393)"/>
<path d="M111.018 105.131C116.088 113.846 121.102 122.594 126.06 131.377C126.617 132.367 126.228 133.076 125.081 133.048C117.817 132.875 110.552 132.813 103.284 132.862C99.5771 132.89 99.0765 131.703 97.4171 128.958C95.2159 125.313 93.054 121.644 90.9315 117.95C90.9915 117.958 91.0515 117.959 91.1115 117.956C91.2428 117.944 91.3159 117.873 91.3309 117.742C91.3384 117.689 91.3421 117.637 91.3421 117.584C91.3421 117.547 91.3571 117.517 91.3871 117.494C93.0559 116.422 94.7659 115.43 96.5171 114.519C96.6934 114.425 96.8809 114.386 97.0796 114.401L98.019 114.474C98.2065 114.489 98.3846 114.455 98.5534 114.373C102.165 112.623 104.342 110.283 107.267 108.022C107.567 107.793 107.527 107.681 107.148 107.684C107.092 107.684 107.038 107.684 106.985 107.684C106.873 107.684 106.854 107.643 106.929 107.561C108.039 106.297 109.402 105.487 111.018 105.131Z" fill="url(#paint7_linear_40_393)"/>
<path d="M96.7535 146.807L94.5748 146.951C94.0823 146.98 94.0823 147.007 94.5748 147.032L99.3642 147.277C99.5645 147.285 99.7398 147.356 99.8901 147.489L100.403 147.928C100.503 148.015 100.583 148.124 100.635 148.246C100.687 148.368 100.712 148.5 100.706 148.633C100.701 148.766 100.666 148.895 100.604 149.013C100.542 149.13 100.454 149.232 100.347 149.311C97.4714 151.457 94.748 153.669 92.177 155.947C89.5601 158.27 87.9386 161.407 85.0525 163.804C84.9565 163.884 84.8981 163.984 84.8772 164.105C84.8647 164.168 84.8584 164.234 84.8584 164.305C84.8542 164.518 84.7457 164.627 84.5329 164.631C83.0366 164.643 80.5762 167.098 78.7982 168.719C78.1721 169.291 77.4083 169.727 76.5068 170.028C75.3423 170.412 74.2112 170.887 73.1135 171.455C73.0468 171.488 73.0008 171.47 72.9758 171.399C72.9549 171.323 72.9299 171.255 72.9007 171.192C72.7963 170.962 72.6336 170.91 72.4123 171.035L70.0709 172.382C69.6285 172.636 69.6619 172.763 70.1711 172.763H70.434C70.5968 172.763 70.6489 172.839 70.5905 172.989C70.1564 174.057 69.4156 174.74 68.368 175.036C68.3246 175.047 68.2866 175.074 68.261 175.111C68.2354 175.147 68.2238 175.192 68.2283 175.237C68.2329 175.281 68.2532 175.323 68.2857 175.354C68.3183 175.385 68.3608 175.403 68.4056 175.405L73.5893 175.869C55.9178 175.773 38.2441 175.708 20.5684 175.675C14.984 175.662 11.2401 175.33 9.33693 174.679C-3.12164 170.397 -3.05903 152.266 9.20546 147.69C10.8249 147.085 13.4021 146.782 16.9373 146.782C43.5448 146.774 70.1502 146.782 96.7535 146.807Z" fill="url(#paint8_linear_40_393)"/>
<path d="M96.7535 146.807L127.274 146.807L126.729 146.976C126.617 147.009 126.619 147.037 126.735 147.057C126.857 147.074 126.973 147.103 127.086 147.145C127.286 147.216 127.28 147.252 127.067 147.252H125.07C124.974 147.252 124.926 147.299 124.926 147.395C124.926 147.454 124.922 147.508 124.914 147.558C124.843 147.901 124.782 148.099 124.732 148.153L120.049 153.018C119.907 153.164 119.755 153.176 119.592 153.055L119.317 152.855C119.1 152.692 118.908 152.717 118.741 152.93C116.691 155.513 114.469 157.924 112.073 160.161C110.652 161.488 108.768 161.801 107.797 163.98C107.718 164.163 107.595 164.312 107.428 164.424L105.124 165.983C104.936 166.113 104.738 166.127 104.529 166.027C103.745 165.651 103.081 165.858 102.538 166.647C102.438 166.797 102.474 166.901 102.645 166.96C102.712 166.981 102.785 166.985 102.864 166.972C103.369 166.885 103.367 167.025 102.858 167.392C100.946 168.79 99.0345 170.184 97.1229 171.574C95.251 172.939 95.3324 175.111 92.5151 175.305C90.8414 175.422 90.8477 175.531 92.5339 175.631L96.597 175.869H73.5893L68.4056 175.405C68.3608 175.403 68.3183 175.385 68.2857 175.354C68.2532 175.323 68.2329 175.281 68.2283 175.237C68.2238 175.192 68.2354 175.147 68.261 175.111C68.2866 175.074 68.3246 175.047 68.368 175.036C69.4156 174.74 70.1564 174.057 70.5905 172.989C70.6489 172.839 70.5968 172.763 70.434 172.763H70.1711C69.6619 172.763 69.6285 172.636 70.0709 172.382L72.4123 171.035C72.6336 170.91 72.7963 170.962 72.9007 171.192C72.9299 171.255 72.9549 171.323 72.9758 171.399C73.0008 171.47 73.0468 171.488 73.1135 171.455C74.2112 170.887 75.3423 170.412 76.5068 170.028C77.4083 169.727 78.1721 169.291 78.7982 168.719C80.5762 167.098 83.0366 164.643 84.5329 164.631C84.7457 164.627 84.8542 164.518 84.8584 164.305C84.8584 164.234 84.8647 164.168 84.8772 164.105C84.8981 163.984 84.9565 163.884 85.0525 163.804C87.9386 161.407 89.5601 158.27 92.177 155.947C94.748 153.669 97.4714 151.457 100.347 149.311C100.454 149.232 100.542 149.13 100.604 149.013C100.666 148.895 100.701 148.766 100.706 148.633C100.712 148.5 100.687 148.368 100.635 148.246C100.583 148.124 100.503 148.015 100.403 147.928L99.8901 147.489C99.7398 147.356 99.5645 147.285 99.3642 147.277L94.5748 147.032C94.0823 147.007 94.0823 146.98 94.5748 146.951L96.7535 146.807Z" fill="url(#paint9_linear_40_393)"/>
<path d="M127.274 146.807L137.535 147.032C137.76 147.037 137.948 147.12 138.098 147.283C138.958 148.218 139.845 149.449 140.759 150.977C145.288 158.569 149.906 166.334 154.614 174.272C154.935 174.811 154.831 175.249 154.301 175.587C153.767 175.929 152.936 176.096 151.809 176.088C133.403 175.938 114.999 175.864 96.597 175.869L92.5339 175.631C90.8477 175.531 90.8414 175.422 92.5151 175.305C95.3324 175.111 95.251 172.939 97.1229 171.574C99.0345 170.184 100.946 168.79 102.858 167.392C103.367 167.025 103.369 166.885 102.864 166.972C102.785 166.985 102.712 166.981 102.645 166.96C102.474 166.901 102.438 166.797 102.538 166.647C103.081 165.858 103.745 165.651 104.529 166.027C104.738 166.127 104.936 166.113 105.124 165.983L107.428 164.424C107.595 164.312 107.718 164.163 107.797 163.98C108.768 161.801 110.652 161.488 112.073 160.161C114.469 157.924 116.691 155.513 118.741 152.93C118.908 152.717 119.1 152.692 119.317 152.855L119.592 153.055C119.755 153.176 119.907 153.164 120.049 153.018L124.732 148.153C124.782 148.099 124.843 147.901 124.914 147.558C124.922 147.508 124.926 147.454 124.926 147.395C124.926 147.299 124.974 147.252 125.07 147.252H127.067C127.28 147.252 127.286 147.216 127.086 147.145C126.973 147.103 126.857 147.074 126.735 147.057C126.619 147.037 126.617 147.009 126.729 146.976L127.274 146.807Z" fill="url(#paint10_linear_40_393)"/>
<path d="M225.928 131.28C221.405 131.28 217.352 130.427 213.768 128.72C210.269 126.928 207.496 124.539 205.448 121.552C203.485 118.565 202.504 115.195 202.504 111.44C202.504 106.832 203.699 103.205 206.088 100.56C208.477 97.8293 212.36 95.8667 217.736 94.672C223.112 93.4773 230.323 92.88 239.368 92.88H245.768V102.096H239.496C234.205 102.096 229.981 102.352 226.824 102.864C223.667 103.376 221.405 104.272 220.04 105.552C218.76 106.747 218.12 108.453 218.12 110.672C218.12 113.488 219.101 115.792 221.064 117.584C223.027 119.376 225.757 120.272 229.256 120.272C232.072 120.272 234.547 119.632 236.68 118.352C238.899 116.987 240.648 115.152 241.928 112.848C243.208 110.544 243.848 107.899 243.848 104.912V90.192C243.848 85.9253 242.909 82.8533 241.032 80.976C239.155 79.0987 235.997 78.16 231.56 78.16C229.085 78.16 226.397 78.4587 223.496 79.056C220.68 79.6533 217.693 80.6773 214.536 82.128C212.915 82.896 211.464 83.1093 210.184 82.768C208.989 82.4267 208.051 81.744 207.368 80.72C206.685 79.6107 206.344 78.416 206.344 77.136C206.344 75.856 206.685 74.6187 207.368 73.424C208.051 72.144 209.203 71.2053 210.824 70.608C214.749 68.9867 218.504 67.8347 222.088 67.152C225.757 66.4693 229.085 66.128 232.072 66.128C238.216 66.128 243.251 67.0667 247.176 68.944C251.187 70.8213 254.173 73.68 256.136 77.52C258.099 81.2747 259.08 86.1387 259.08 92.112V122.832C259.08 125.477 258.44 127.525 257.16 128.976C255.88 130.341 254.045 131.024 251.656 131.024C249.267 131.024 247.389 130.341 246.024 128.976C244.744 127.525 244.104 125.477 244.104 122.832V116.688H245.128C244.531 119.675 243.336 122.277 241.544 124.496C239.837 126.629 237.661 128.293 235.016 129.488C232.371 130.683 229.341 131.28 225.928 131.28ZM303.992 131.28C298.445 131.28 293.795 130.341 290.04 128.464C286.371 126.587 283.64 123.856 281.848 120.272C280.056 116.603 279.16 112.08 279.16 106.704V79.44H272.504C270.456 79.44 268.877 78.928 267.768 77.904C266.659 76.7947 266.104 75.3013 266.104 73.424C266.104 71.4613 266.659 69.968 267.768 68.944C268.877 67.92 270.456 67.408 272.504 67.408H279.16V55.76C279.16 53.1147 279.843 51.1093 281.208 49.744C282.659 48.3787 284.664 47.696 287.224 47.696C289.784 47.696 291.747 48.3787 293.112 49.744C294.477 51.1093 295.16 53.1147 295.16 55.76V67.408H308.728C310.776 67.408 312.355 67.92 313.464 68.944C314.573 69.968 315.128 71.4613 315.128 73.424C315.128 75.3013 314.573 76.7947 313.464 77.904C312.355 78.928 310.776 79.44 308.728 79.44H295.16V105.808C295.16 109.904 296.056 112.976 297.848 115.024C299.64 117.072 302.541 118.096 306.552 118.096C308.003 118.096 309.283 117.968 310.392 117.712C311.501 117.456 312.483 117.285 313.336 117.2C314.36 117.115 315.213 117.456 315.896 118.224C316.579 118.907 316.92 120.357 316.92 122.576C316.92 124.283 316.621 125.819 316.024 127.184C315.512 128.464 314.531 129.36 313.08 129.872C311.971 130.213 310.52 130.512 308.728 130.768C306.936 131.109 305.357 131.28 303.992 131.28ZM350.789 131.024C348.656 131.024 346.778 130.469 345.157 129.36C343.621 128.251 342.341 126.544 341.317 124.24L320.965 77.008C320.197 75.1307 319.898 73.3813 320.069 71.76C320.325 70.1387 321.093 68.8587 322.373 67.92C323.738 66.896 325.573 66.384 327.877 66.384C329.84 66.384 331.418 66.8533 332.613 67.792C333.808 68.6453 334.874 70.3093 335.813 72.784L353.093 115.92H349.253L367.045 72.656C367.984 70.2667 369.05 68.6453 370.245 67.792C371.525 66.8533 373.232 66.384 375.365 66.384C377.242 66.384 378.736 66.896 379.845 67.92C380.954 68.8587 381.637 70.1387 381.893 71.76C382.149 73.296 381.85 75.0027 380.997 76.88L360.261 124.24C359.322 126.544 358.042 128.251 356.421 129.36C354.885 130.469 353.008 131.024 350.789 131.024ZM414.321 131.28C407.238 131.28 401.905 129.275 398.321 125.264C394.737 121.168 392.945 115.195 392.945 107.344V46.8C392.945 44.1547 393.628 42.1493 394.993 40.784C396.358 39.4187 398.321 38.736 400.881 38.736C403.441 38.736 405.404 39.4187 406.769 40.784C408.22 42.1493 408.945 44.1547 408.945 46.8V106.576C408.945 110.501 409.756 113.403 411.377 115.28C413.084 117.157 415.473 118.096 418.545 118.096C419.228 118.096 419.868 118.096 420.465 118.096C421.062 118.011 421.66 117.925 422.257 117.84C423.452 117.669 424.262 118.011 424.689 118.864C425.116 119.632 425.329 121.253 425.329 123.728C425.329 125.861 424.902 127.525 424.049 128.72C423.196 129.915 421.788 130.64 419.825 130.896C418.972 130.981 418.076 131.067 417.137 131.152C416.198 131.237 415.26 131.28 414.321 131.28ZM461.739 131.28C455.254 131.28 449.622 129.957 444.843 127.312C440.064 124.667 436.352 120.912 433.707 116.048C431.062 111.099 429.739 105.296 429.739 98.64C429.739 93.6053 430.464 89.1253 431.915 85.2C433.451 81.1893 435.627 77.776 438.443 74.96C441.259 72.0587 444.63 69.8827 448.555 68.432C452.48 66.896 456.875 66.128 461.739 66.128C468.224 66.128 473.856 67.4507 478.635 70.096C483.414 72.7413 487.126 76.496 489.771 81.36C492.416 86.224 493.739 91.984 493.739 98.64C493.739 103.675 492.971 108.197 491.435 112.208C489.984 116.219 487.851 119.675 485.035 122.576C482.219 125.392 478.848 127.568 474.923 129.104C470.998 130.555 466.603 131.28 461.739 131.28ZM461.739 119.12C464.896 119.12 467.67 118.352 470.059 116.816C472.448 115.28 474.283 113.019 475.563 110.032C476.928 106.96 477.611 103.163 477.611 98.64C477.611 91.8133 476.16 86.736 473.259 83.408C470.358 79.9947 466.518 78.288 461.739 78.288C458.582 78.288 455.808 79.056 453.419 80.592C451.03 82.0427 449.152 84.304 447.787 87.376C446.507 90.3627 445.867 94.1173 445.867 98.64C445.867 105.381 447.318 110.501 450.219 114C453.12 117.413 456.96 119.12 461.739 119.12ZM527.553 131.28C523.03 131.28 518.977 130.427 515.393 128.72C511.894 126.928 509.121 124.539 507.073 121.552C505.11 118.565 504.129 115.195 504.129 111.44C504.129 106.832 505.324 103.205 507.713 100.56C510.102 97.8293 513.985 95.8667 519.361 94.672C524.737 93.4773 531.948 92.88 540.993 92.88H547.393V102.096H541.121C535.83 102.096 531.606 102.352 528.449 102.864C525.292 103.376 523.03 104.272 521.665 105.552C520.385 106.747 519.745 108.453 519.745 110.672C519.745 113.488 520.726 115.792 522.689 117.584C524.652 119.376 527.382 120.272 530.881 120.272C533.697 120.272 536.172 119.632 538.305 118.352C540.524 116.987 542.273 115.152 543.553 112.848C544.833 110.544 545.473 107.899 545.473 104.912V90.192C545.473 85.9253 544.534 82.8533 542.657 80.976C540.78 79.0987 537.622 78.16 533.185 78.16C530.71 78.16 528.022 78.4587 525.121 79.056C522.305 79.6533 519.318 80.6773 516.161 82.128C514.54 82.896 513.089 83.1093 511.809 82.768C510.614 82.4267 509.676 81.744 508.993 80.72C508.31 79.6107 507.969 78.416 507.969 77.136C507.969 75.856 508.31 74.6187 508.993 73.424C509.676 72.144 510.828 71.2053 512.449 70.608C516.374 68.9867 520.129 67.8347 523.713 67.152C527.382 66.4693 530.71 66.128 533.697 66.128C539.841 66.128 544.876 67.0667 548.801 68.944C552.812 70.8213 555.798 73.68 557.761 77.52C559.724 81.2747 560.705 86.1387 560.705 92.112V122.832C560.705 125.477 560.065 127.525 558.785 128.976C557.505 130.341 555.67 131.024 553.281 131.024C550.892 131.024 549.014 130.341 547.649 128.976C546.369 127.525 545.729 125.477 545.729 122.832V116.688H546.753C546.156 119.675 544.961 122.277 543.169 124.496C541.462 126.629 539.286 128.293 536.641 129.488C533.996 130.683 530.966 131.28 527.553 131.28ZM601.009 131.28C595.548 131.28 590.726 129.957 586.545 127.312C582.449 124.667 579.249 120.912 576.945 116.048C574.641 111.099 573.489 105.296 573.489 98.64C573.489 91.8987 574.641 86.1387 576.945 81.36C579.249 76.496 582.449 72.7413 586.545 70.096C590.726 67.4507 595.548 66.128 601.009 66.128C606.214 66.128 610.737 67.408 614.577 69.968C618.502 72.528 621.148 75.8987 622.513 80.08H621.105V46.8C621.105 44.1547 621.788 42.1493 623.153 40.784C624.518 39.4187 626.481 38.736 629.041 38.736C631.601 38.736 633.564 39.4187 634.929 40.784C636.38 42.1493 637.105 44.1547 637.105 46.8V122.832C637.105 125.477 636.422 127.525 635.057 128.976C633.692 130.341 631.729 131.024 629.169 131.024C626.609 131.024 624.646 130.341 623.281 128.976C621.916 127.525 621.233 125.477 621.233 122.832V112.848L622.641 116.688C621.361 121.125 618.758 124.667 614.833 127.312C610.908 129.957 606.3 131.28 601.009 131.28ZM605.489 119.12C608.646 119.12 611.42 118.352 613.809 116.816C616.198 115.28 618.033 113.019 619.313 110.032C620.678 106.96 621.361 103.163 621.361 98.64C621.361 91.8133 619.91 86.736 617.009 83.408C614.108 79.9947 610.268 78.288 605.489 78.288C602.332 78.288 599.558 79.056 597.169 80.592C594.78 82.0427 592.902 84.304 591.537 87.376C590.257 90.3627 589.617 94.1173 589.617 98.64C589.617 105.381 591.068 110.501 593.969 114C596.87 117.413 600.71 119.12 605.489 119.12ZM675.071 131.28C667.988 131.28 662.655 129.275 659.071 125.264C655.487 121.168 653.695 115.195 653.695 107.344V46.8C653.695 44.1547 654.378 42.1493 655.743 40.784C657.108 39.4187 659.071 38.736 661.631 38.736C664.191 38.736 666.154 39.4187 667.519 40.784C668.97 42.1493 669.695 44.1547 669.695 46.8V106.576C669.695 110.501 670.506 113.403 672.127 115.28C673.834 117.157 676.223 118.096 679.295 118.096C679.978 118.096 680.618 118.096 681.215 118.096C681.812 118.011 682.41 117.925 683.007 117.84C684.202 117.669 685.012 118.011 685.439 118.864C685.866 119.632 686.079 121.253 686.079 123.728C686.079 125.861 685.652 127.525 684.799 128.72C683.946 129.915 682.538 130.64 680.575 130.896C679.722 130.981 678.826 131.067 677.887 131.152C676.948 131.237 676.01 131.28 675.071 131.28ZM708.817 154.064C706.94 154.064 705.404 153.552 704.209 152.528C703.014 151.589 702.289 150.309 702.033 148.688C701.862 147.067 702.161 145.36 702.929 143.568L711.633 124.24V130.896L688.337 77.008C687.569 75.1307 687.313 73.3813 687.569 71.76C687.825 70.1387 688.593 68.8587 689.873 67.92C691.238 66.896 693.073 66.384 695.377 66.384C697.34 66.384 698.918 66.8533 700.113 67.792C701.308 68.6453 702.374 70.3093 703.313 72.784L720.593 115.92H716.753L734.417 72.656C735.356 70.2667 736.465 68.6453 737.745 67.792C739.025 66.8533 740.732 66.384 742.865 66.384C744.742 66.384 746.236 66.896 747.345 67.92C748.454 68.8587 749.137 70.1387 749.393 71.76C749.649 73.296 749.35 75.0027 748.497 76.88L717.393 147.92C716.284 150.309 715.089 151.931 713.809 152.784C712.529 153.637 710.865 154.064 708.817 154.064Z" fill="black"/>
<defs>
<linearGradient id="paint0_linear_40_393" x1="74.8415" y1="61.0119" x2="38.6636" y2="136.931" gradientUnits="userSpaceOnUse">
<stop stop-color="#F3984A"/>
<stop offset="0.755208" stop-color="#E4564C"/>
</linearGradient>
<linearGradient id="paint1_linear_40_393" x1="74.8415" y1="61.0119" x2="38.6636" y2="136.931" gradientUnits="userSpaceOnUse">
<stop stop-color="#F3984A"/>
<stop offset="0.755208" stop-color="#E4564C"/>
</linearGradient>
<linearGradient id="paint2_linear_40_393" x1="74.8415" y1="61.0119" x2="38.6636" y2="136.931" gradientUnits="userSpaceOnUse">
<stop stop-color="#F3984A"/>
<stop offset="0.755208" stop-color="#E4564C"/>
</linearGradient>
<linearGradient id="paint3_linear_40_393" x1="83.6063" y1="9.67512" x2="180.019" y2="175.581" gradientUnits="userSpaceOnUse">
<stop offset="0.473958" stop-color="#AC4D61"/>
<stop offset="1" stop-color="#654D8F"/>
</linearGradient>
<linearGradient id="paint4_linear_40_393" x1="83.6063" y1="9.67512" x2="180.019" y2="175.581" gradientUnits="userSpaceOnUse">
<stop offset="0.473958" stop-color="#AC4D61"/>
<stop offset="1" stop-color="#654D8F"/>
</linearGradient>
<linearGradient id="paint5_linear_40_393" x1="83.6063" y1="9.67512" x2="180.019" y2="175.581" gradientUnits="userSpaceOnUse">
<stop offset="0.473958" stop-color="#AC4D61"/>
<stop offset="1" stop-color="#654D8F"/>
</linearGradient>
<linearGradient id="paint6_linear_40_393" x1="88.7997" y1="96.7157" x2="108.621" y2="133.048" gradientUnits="userSpaceOnUse">
<stop offset="0.421875" stop-color="#F3984A"/>
<stop offset="0.6875" stop-color="#EE7045"/>
</linearGradient>
<linearGradient id="paint7_linear_40_393" x1="88.7997" y1="96.7157" x2="108.621" y2="133.048" gradientUnits="userSpaceOnUse">
<stop offset="0.421875" stop-color="#F3984A"/>
<stop offset="0.6875" stop-color="#EE7045"/>
</linearGradient>
<linearGradient id="paint8_linear_40_393" x1="7.2271" y1="161.181" x2="144.96" y2="161.181" gradientUnits="userSpaceOnUse">
<stop offset="0.5" stop-color="#F3984A"/>
<stop offset="0.75" stop-color="#E4564C"/>
</linearGradient>
<linearGradient id="paint9_linear_40_393" x1="7.2271" y1="161.181" x2="144.96" y2="161.181" gradientUnits="userSpaceOnUse">
<stop offset="0.5" stop-color="#F3984A"/>
<stop offset="0.75" stop-color="#E4564C"/>
</linearGradient>
<linearGradient id="paint10_linear_40_393" x1="7.2271" y1="161.181" x2="144.96" y2="161.181" gradientUnits="userSpaceOnUse">
<stop offset="0.5" stop-color="#F3984A"/>
<stop offset="0.75" stop-color="#E4564C"/>
</linearGradient>
</defs>
</svg>
