<svg width="1em" height="1em" viewBox="0 0 500 471" fill="none" xmlns="http://www.w3.org/2000/svg" preserveAspectRatio="xMidYMid meet">
<path d="M195.58 26.7729L240.726 107.276C240.995 107.759 241.068 108.274 240.945 108.824L240.676 109.934L219.65 154.509C218.439 155.002 217.441 155.837 216.656 157.015C213.897 161.198 213.696 161.069 216.05 156.628C216.421 155.922 216.74 155.176 217.009 154.391C217.805 152.002 217.447 151.801 215.933 153.785C215.809 153.954 215.703 154.15 215.613 154.374C215.456 154.778 215.17 154.907 214.755 154.761L212.535 153.987C212.064 153.808 211.587 153.808 211.105 153.987C200.609 157.71 188.868 158.355 175.883 155.922C165.802 154.038 153.842 153.875 140.004 155.434C137.313 155.737 134.689 155.366 131.846 155.753C131.454 155.809 131.196 155.647 131.073 155.266C130.927 154.795 130.596 154.402 130.08 154.088C149.626 113.92 169.682 74.0052 190.248 34.3421C191.515 31.8975 193.292 29.3744 195.58 26.7729Z" fill="url(#paint0_linear_40_353)"/>
<path d="M219.65 154.509L177.464 244.919L173.578 250.84C173.309 251.244 173.001 251.278 172.653 250.941C169.895 248.328 166.985 247.975 163.923 249.882C163.43 250.196 163.144 250.638 163.066 251.21C162.578 255.045 153.444 255.466 150.416 255.954C149.744 256.055 149.648 256.346 150.13 256.828L150.534 257.249C151.117 257.821 151 258.135 150.181 258.191L145.303 258.477C144.72 258.511 144.255 258.292 143.907 257.821C142.544 255.987 134.487 257.232 132.149 256.997C131.611 256.941 131.073 256.952 130.534 257.03C129.738 257.165 129.065 257.479 128.516 257.972C127.933 258.488 127.327 258.516 126.699 258.056L125.556 257.215C125.163 256.913 124.72 256.739 124.227 256.694C118.463 256.189 112.682 255.707 106.885 255.247C103.992 255.023 102.965 253.649 103.807 251.126C104.042 250.42 103.79 250.016 103.05 249.915L93.5796 248.637C93.4114 248.614 93.3833 248.542 93.4955 248.418L93.9328 247.981C94.3477 247.577 94.2692 247.308 93.6973 247.173C91.8919 246.747 90.1426 246.747 88.4493 247.173C88.2811 247.218 88.1633 247.162 88.096 247.005C87.883 246.467 87.4905 246.024 86.9186 245.676C86.4364 245.385 86.3915 245.037 86.784 244.634C87.4232 243.972 87.5354 243.204 87.1204 242.329L130.08 154.088C130.596 154.402 130.927 154.795 131.073 155.266C131.196 155.647 131.454 155.809 131.846 155.753C134.689 155.366 137.313 155.737 140.004 155.434C153.842 153.875 165.802 154.038 175.883 155.922C188.868 158.355 200.609 157.71 211.105 153.987C211.587 153.808 212.064 153.808 212.535 153.987L214.755 154.761C215.17 154.907 215.456 154.778 215.613 154.374C215.703 154.15 215.809 153.954 215.933 153.785C217.447 151.801 217.805 152.002 217.009 154.391C216.74 155.176 216.421 155.922 216.05 156.628C213.696 161.069 213.897 161.198 216.656 157.015C217.441 155.837 218.439 155.002 219.65 154.509Z" fill="url(#paint1_linear_40_353)"/>
<path d="M87.1204 242.329C87.5354 243.204 87.4232 243.972 86.784 244.634C86.3915 245.037 86.4364 245.385 86.9186 245.676C87.4905 246.024 87.883 246.467 88.096 247.005C88.1633 247.162 88.2811 247.218 88.4493 247.173C90.1426 246.747 91.8919 246.747 93.6973 247.173C94.2692 247.308 94.3477 247.577 93.9328 247.981L93.4955 248.418C93.3833 248.542 93.4114 248.614 93.5796 248.637L103.05 249.915C103.79 250.016 104.042 250.42 103.807 251.126C102.965 253.649 103.992 255.023 106.885 255.247C112.682 255.707 118.463 256.189 124.227 256.694C124.72 256.739 125.163 256.913 125.556 257.215L126.699 258.056C127.327 258.516 127.933 258.488 128.516 257.972C129.065 257.479 129.738 257.165 130.534 257.03C131.073 256.952 131.611 256.941 132.149 256.997C134.487 257.232 142.544 255.987 143.907 257.821C144.255 258.292 144.72 258.511 145.303 258.477L150.181 258.191C151 258.135 151.117 257.821 150.534 257.249L150.13 256.828C149.648 256.346 149.744 256.055 150.416 255.954C153.444 255.466 162.578 255.045 163.066 251.21C163.144 250.638 163.43 250.196 163.923 249.882C166.985 247.975 169.895 248.328 172.653 250.941C173.001 251.278 173.309 251.244 173.578 250.84L177.464 244.919C159.5 283.147 141.569 321.392 123.672 359.653C121.956 363.342 119.136 365.193 115.211 365.204C89.1501 365.237 63.1062 365.181 37.0791 365.035C34.8027 365.024 33.2272 364.873 32.3525 364.581C30.3565 363.931 29.8126 362.658 30.7209 360.763L87.1204 242.329Z" fill="url(#paint2_linear_40_353)"/>
<path d="M368.445 180.093C367.571 180.295 367.021 179.869 366.797 178.814C366.46 177.132 366.309 177.16 366.343 178.899C366.343 179.044 366.343 179.201 366.343 179.37C366.354 179.773 366.158 179.947 365.754 179.891L361.616 179.37C361.246 179.325 361.011 179.482 360.91 179.841C360.484 181.354 360.966 182.184 362.356 182.33C362.771 182.375 362.979 182.605 362.979 183.02C362.979 183.177 362.979 183.345 362.979 183.524C362.99 184.152 362.709 184.343 362.138 184.096L354.434 180.816C353.839 180.569 353.284 180.642 352.768 181.035L349.959 183.221C349.432 183.636 348.832 183.816 348.16 183.76L336.267 182.666C335.853 182.622 335.645 182.812 335.645 183.238C335.645 183.429 335.645 183.614 335.645 183.793C335.645 184.522 335.286 184.847 334.569 184.769C321.471 183.401 308.373 182.022 295.276 180.631C289.086 179.969 285.654 182.481 284.981 188.167L242.324 111.297C242.1 110.893 241.792 110.579 241.399 110.355L240.676 109.934L240.945 108.824C241.068 108.274 240.995 107.759 240.726 107.276L195.58 26.7729C213.897 -10.4343 263.939 -7.32249 283.602 26.5879C307.33 67.5181 335.611 118.686 368.445 180.093Z" fill="url(#paint3_linear_40_353)"/>
<path d="M368.445 180.093L404.61 246.955C403.814 247.201 403.079 247.252 402.406 247.106C402.059 247.028 401.711 247.022 401.363 247.089C400.063 247.336 399.306 247.998 399.092 249.074C398.947 249.803 398.504 250.134 397.764 250.067C393.48 249.64 390.665 251.379 389.32 255.281C389.129 255.819 388.798 256.245 388.327 256.559C387.307 257.243 386.645 258.269 386.343 259.638C386.219 260.198 385.866 260.479 385.283 260.479H377.327C376.755 260.479 376.301 260.714 375.964 261.185L373.979 263.96C373.632 264.443 373.755 264.684 374.349 264.684H377.629C378.1 264.684 378.241 264.897 378.05 265.323C376.671 268.485 374.271 269.859 370.851 269.444C370.268 269.365 369.763 269.528 369.337 269.932L358.387 279.906C357.759 280.478 357.585 280.361 357.865 279.553C357.932 279.363 358.017 279.172 358.117 278.981C358.532 278.207 358.314 277.894 357.461 278.039L354.417 278.527C353.856 278.628 353.385 278.886 353.004 279.301L346.057 286.904C345.586 287.431 345.07 287.487 344.51 287.072C343.209 286.13 342.194 286.377 341.465 287.812L284.981 188.167C285.654 182.481 289.086 179.969 295.276 180.631C308.373 182.022 321.471 183.401 334.569 184.769C335.286 184.847 335.645 184.522 335.645 183.793C335.645 183.614 335.645 183.429 335.645 183.238C335.645 182.812 335.853 182.622 336.267 182.666L348.16 183.76C348.832 183.816 349.432 183.636 349.959 183.221L352.768 181.035C353.284 180.642 353.839 180.569 354.434 180.816L362.138 184.096C362.709 184.343 362.99 184.152 362.979 183.524C362.979 183.345 362.979 183.177 362.979 183.02C362.979 182.605 362.771 182.375 362.356 182.33C360.966 182.184 360.484 181.354 360.91 179.841C361.011 179.482 361.246 179.325 361.616 179.37L365.754 179.891C366.158 179.947 366.354 179.773 366.343 179.37C366.343 179.201 366.343 179.044 366.343 178.899C366.309 177.16 366.46 177.132 366.797 178.814C367.021 179.869 367.571 180.295 368.445 180.093Z" fill="url(#paint4_linear_40_353)"/>
<path d="M404.61 246.955C433.558 299.772 461.497 353.227 491.539 405.422C495.575 412.419 498.054 418.2 498.973 422.764C504.743 451.292 476.736 474.639 449.016 467.12C442.389 465.337 436.703 455.211 433.709 450.047C408.411 406.302 377.663 352.224 341.465 287.812C342.194 286.377 343.209 286.13 344.51 287.072C345.07 287.487 345.586 287.431 346.057 286.904L353.004 279.301C353.385 278.886 353.856 278.628 354.417 278.527L357.461 278.039C358.314 277.894 358.532 278.207 358.117 278.981C358.017 279.172 357.932 279.363 357.865 279.553C357.585 280.361 357.759 280.478 358.387 279.906L369.337 269.932C369.763 269.528 370.268 269.365 370.851 269.444C374.271 269.859 376.671 268.485 378.05 265.323C378.241 264.897 378.1 264.684 377.629 264.684H374.349C373.755 264.684 373.632 264.443 373.979 263.96L375.964 261.185C376.301 260.714 376.755 260.479 377.327 260.479H385.283C385.866 260.479 386.219 260.198 386.343 259.638C386.645 258.269 387.307 257.243 388.327 256.559C388.798 256.245 389.129 255.819 389.32 255.281C390.665 251.379 393.48 249.64 397.764 250.067C398.504 250.134 398.947 249.803 399.092 249.074C399.306 247.998 400.063 247.336 401.363 247.089C401.711 247.022 402.059 247.028 402.406 247.106C403.079 247.252 403.814 247.201 404.61 246.955Z" fill="url(#paint5_linear_40_353)"/>
<path d="M297.642 279.607C293.332 280.557 289.697 282.717 286.737 286.087C286.537 286.307 286.587 286.417 286.887 286.417C287.027 286.417 287.172 286.417 287.322 286.417C288.332 286.407 288.437 286.707 287.637 287.317C279.837 293.347 274.033 299.587 264.403 304.252C263.953 304.472 263.477 304.562 262.977 304.522L260.472 304.327C259.942 304.287 259.442 304.392 258.972 304.642C254.302 307.072 249.742 309.717 245.292 312.577C245.212 312.637 245.172 312.717 245.172 312.817C245.172 312.957 245.162 313.097 245.142 313.237C245.102 313.587 244.907 313.777 244.557 313.807C244.397 313.817 244.237 313.812 244.077 313.792L213.462 261.187C213.305 260.916 213.217 260.611 213.207 260.298C213.196 259.985 213.264 259.673 213.403 259.391C213.543 259.11 213.75 258.866 214.006 258.682C214.262 258.498 214.56 258.38 214.872 258.337C219.342 257.747 223.552 257.512 227.502 257.632C245.667 258.202 263.892 257.992 282.072 258.367C287.787 258.472 295.197 274.792 297.642 279.607Z" fill="url(#paint6_linear_40_353)"/>
<path d="M297.642 279.607C311.162 302.847 324.532 326.177 337.752 349.597C339.237 352.237 338.202 354.127 335.142 354.052C315.772 353.592 296.397 353.427 277.017 353.557C267.132 353.632 265.797 350.467 261.372 343.147C255.502 333.427 249.737 323.642 244.077 313.792C244.237 313.812 244.397 313.817 244.557 313.807C244.907 313.777 245.102 313.587 245.142 313.237C245.162 313.097 245.172 312.957 245.172 312.817C245.172 312.717 245.212 312.637 245.292 312.577C249.742 309.717 254.302 307.072 258.972 304.642C259.442 304.392 259.942 304.287 260.472 304.327L262.977 304.522C263.477 304.562 263.953 304.472 264.403 304.252C274.033 299.587 279.837 293.347 287.637 287.317C288.437 286.707 288.332 286.407 287.322 286.417C287.172 286.417 287.027 286.417 286.887 286.417C286.587 286.417 286.537 286.307 286.737 286.087C289.697 282.717 293.332 280.557 297.642 279.607Z" fill="url(#paint7_linear_40_353)"/>
<path d="M259.952 391.747L254.099 392.134C252.775 392.212 252.775 392.285 254.099 392.352L266.966 393.008C267.505 393.031 267.976 393.221 268.379 393.58L269.759 394.758C270.027 394.993 270.24 395.285 270.381 395.613C270.522 395.941 270.587 396.296 270.573 396.652C270.558 397.009 270.464 397.358 270.297 397.673C270.13 397.989 269.894 398.263 269.607 398.475C261.881 404.239 254.564 410.182 247.656 416.305C240.625 422.545 236.269 430.972 228.515 437.415C228.257 437.628 228.1 437.897 228.044 438.222C228.01 438.39 227.993 438.57 227.993 438.76C227.982 439.332 227.69 439.624 227.118 439.635C223.098 439.669 216.488 446.262 211.711 450.619C210.029 452.155 207.977 453.327 205.554 454.134C202.426 455.166 199.387 456.444 196.438 457.969C196.258 458.059 196.135 458.009 196.068 457.818C196.011 457.616 195.944 457.431 195.866 457.263C195.585 456.646 195.148 456.506 194.554 456.842L188.263 460.459C187.074 461.143 187.164 461.485 188.532 461.485H189.238C189.676 461.485 189.816 461.687 189.659 462.091C188.493 464.961 186.502 466.795 183.688 467.591C183.571 467.621 183.469 467.692 183.4 467.791C183.331 467.89 183.3 468.01 183.312 468.13C183.324 468.25 183.379 468.362 183.467 468.445C183.554 468.528 183.668 468.577 183.788 468.583L197.716 469.828C150.237 469.57 102.752 469.396 55.2621 469.307C40.2581 469.273 30.1994 468.381 25.0859 466.632C-8.38711 455.127 -8.21889 406.414 24.7327 394.118C29.0836 392.492 36.0081 391.679 45.5062 391.679C116.994 391.657 188.476 391.679 259.952 391.747Z" fill="url(#paint8_linear_40_353)"/>
<path d="M259.952 391.747L341.953 391.747L340.489 392.201C340.187 392.291 340.192 392.363 340.506 392.42C340.832 392.464 341.145 392.543 341.448 392.655C341.987 392.846 341.97 392.941 341.398 392.941H336.032C335.774 392.941 335.645 393.07 335.645 393.328C335.645 393.485 335.634 393.631 335.611 393.765C335.421 394.685 335.258 395.217 335.124 395.363L322.542 408.433C322.161 408.825 321.751 408.859 321.314 408.534L320.574 407.995C319.991 407.558 319.475 407.625 319.026 408.197C313.52 415.139 307.549 421.615 301.112 427.625C297.294 431.191 292.231 432.032 289.624 437.886C289.411 438.379 289.08 438.777 288.631 439.08L282.441 443.268C281.937 443.616 281.404 443.655 280.844 443.386C278.735 442.377 276.952 442.932 275.495 445.051C275.225 445.455 275.321 445.735 275.78 445.892C275.96 445.948 276.156 445.96 276.369 445.926C277.726 445.69 277.72 446.066 276.352 447.053C271.217 450.809 266.081 454.555 260.945 458.289C255.915 461.956 256.134 467.793 248.565 468.314C244.068 468.628 244.085 468.92 248.615 469.189L259.532 469.828H197.716L183.788 468.583C183.668 468.577 183.554 468.528 183.467 468.445C183.379 468.362 183.324 468.25 183.312 468.13C183.3 468.01 183.331 467.89 183.4 467.791C183.469 467.692 183.571 467.621 183.688 467.591C186.502 466.795 188.493 464.961 189.659 462.091C189.816 461.687 189.676 461.485 189.238 461.485H188.532C187.164 461.485 187.074 461.143 188.263 460.459L194.554 456.842C195.148 456.506 195.585 456.646 195.866 457.263C195.944 457.431 196.011 457.616 196.068 457.818C196.135 458.009 196.258 458.059 196.438 457.969C199.387 456.444 202.426 455.166 205.554 454.134C207.977 453.327 210.029 452.155 211.711 450.619C216.488 446.262 223.098 439.669 227.118 439.635C227.69 439.624 227.982 439.332 227.993 438.76C227.993 438.57 228.01 438.39 228.044 438.222C228.1 437.897 228.257 437.628 228.515 437.415C236.269 430.972 240.625 422.545 247.656 416.305C254.564 410.182 261.881 404.239 269.607 398.475C269.894 398.263 270.13 397.989 270.297 397.673C270.464 397.358 270.558 397.009 270.573 396.652C270.587 396.296 270.522 395.941 270.381 395.613C270.24 395.285 270.027 394.993 269.759 394.758L268.379 393.58C267.976 393.221 267.505 393.031 266.966 393.008L254.099 392.352C252.775 392.285 252.775 392.212 254.099 392.134L259.952 391.747Z" fill="url(#paint9_linear_40_353)"/>
<path d="M341.953 391.747L369.522 392.352C370.127 392.363 370.632 392.588 371.036 393.025C373.346 395.537 375.729 398.845 378.184 402.949C390.351 423.347 402.759 444.21 415.408 465.539C416.272 466.985 415.992 468.163 414.567 469.071C413.132 469.991 410.901 470.439 407.873 470.417C358.42 470.013 308.973 469.817 259.532 469.828L248.615 469.189C244.085 468.92 244.068 468.628 248.565 468.314C256.134 467.793 255.915 461.956 260.945 458.289C266.081 454.555 271.217 450.809 276.352 447.053C277.72 446.066 277.726 445.69 276.369 445.926C276.156 445.96 275.96 445.948 275.78 445.892C275.321 445.735 275.225 445.455 275.495 445.051C276.952 442.932 278.735 442.377 280.844 443.386C281.404 443.655 281.937 443.616 282.441 443.268L288.631 439.08C289.08 438.777 289.411 438.379 289.624 437.886C292.231 432.032 297.294 431.191 301.112 427.625C307.549 421.615 313.52 415.139 319.026 408.197C319.475 407.625 319.991 407.558 320.574 407.995L321.314 408.534C321.751 408.859 322.161 408.825 322.542 408.433L335.124 395.363C335.258 395.217 335.421 394.685 335.611 393.765C335.634 393.631 335.645 393.485 335.645 393.328C335.645 393.07 335.774 392.941 336.032 392.941H341.398C341.97 392.941 341.987 392.846 341.448 392.655C341.145 392.543 340.832 392.464 340.506 392.42C340.192 392.363 340.187 392.291 340.489 392.201L341.953 391.747Z" fill="url(#paint10_linear_40_353)"/>
<defs>
<linearGradient id="paint0_linear_40_353" x1="201.08" y1="161.237" x2="103.879" y2="365.213" gradientUnits="userSpaceOnUse">
<stop stop-color="#F3984A"/>
<stop offset="0.755208" stop-color="#E4564C"/>
</linearGradient>
<linearGradient id="paint1_linear_40_353" x1="201.08" y1="161.237" x2="103.879" y2="365.213" gradientUnits="userSpaceOnUse">
<stop stop-color="#F3984A"/>
<stop offset="0.755208" stop-color="#E4564C"/>
</linearGradient>
<linearGradient id="paint2_linear_40_353" x1="201.08" y1="161.237" x2="103.879" y2="365.213" gradientUnits="userSpaceOnUse">
<stop stop-color="#F3984A"/>
<stop offset="0.755208" stop-color="#E4564C"/>
</linearGradient>
<linearGradient id="paint3_linear_40_353" x1="224.629" y1="23.3078" x2="483.667" y2="469.054" gradientUnits="userSpaceOnUse">
<stop offset="0.473958" stop-color="#AC4D61"/>
<stop offset="1" stop-color="#654D8F"/>
</linearGradient>
<linearGradient id="paint4_linear_40_353" x1="224.629" y1="23.3078" x2="483.667" y2="469.054" gradientUnits="userSpaceOnUse">
<stop offset="0.473958" stop-color="#AC4D61"/>
<stop offset="1" stop-color="#654D8F"/>
</linearGradient>
<linearGradient id="paint5_linear_40_353" x1="224.629" y1="23.3078" x2="483.667" y2="469.054" gradientUnits="userSpaceOnUse">
<stop offset="0.473958" stop-color="#AC4D61"/>
<stop offset="1" stop-color="#654D8F"/>
</linearGradient>
<linearGradient id="paint6_linear_40_353" x1="238.393" y1="257.167" x2="291.25" y2="354.054" gradientUnits="userSpaceOnUse">
<stop offset="0.421875" stop-color="#F3984A"/>
<stop offset="0.6875" stop-color="#EE7045"/>
</linearGradient>
<linearGradient id="paint7_linear_40_353" x1="238.393" y1="257.167" x2="291.25" y2="354.054" gradientUnits="userSpaceOnUse">
<stop offset="0.421875" stop-color="#F3984A"/>
<stop offset="0.6875" stop-color="#EE7045"/>
</linearGradient>
<linearGradient id="paint8_linear_40_353" x1="19.4174" y1="430.367" x2="389.471" y2="430.367" gradientUnits="userSpaceOnUse">
<stop offset="0.5" stop-color="#F3984A"/>
<stop offset="0.75" stop-color="#E4564C"/>
</linearGradient>
<linearGradient id="paint9_linear_40_353" x1="19.4174" y1="430.367" x2="389.471" y2="430.367" gradientUnits="userSpaceOnUse">
<stop offset="0.5" stop-color="#F3984A"/>
<stop offset="0.75" stop-color="#E4564C"/>
</linearGradient>
<linearGradient id="paint10_linear_40_353" x1="19.4174" y1="430.367" x2="389.471" y2="430.367" gradientUnits="userSpaceOnUse">
<stop offset="0.5" stop-color="#F3984A"/>
<stop offset="0.75" stop-color="#E4564C"/>
</linearGradient>
</defs>
</svg>
