<?xml version="1.0" standalone="no"?><!DOCTYPE svg PUBLIC "-//W3C//DTD SVG 1.1//EN" "http://www.w3.org/Graphics/SVG/1.1/DTD/svg11.dtd"><svg t="1687422208872" class="icon" viewBox="0 0 1024 1024" version="1.1" xmlns="http://www.w3.org/2000/svg" p-id="2370" xmlns:xlink="http://www.w3.org/1999/xlink"><path d="M761.472 963.84H262.016c-113.408 0-205.312-91.904-205.312-205.312V259.072C56.704 145.664 148.608 53.76 262.016 53.76h499.456c113.408 0 205.312 91.904 205.312 205.312v499.456c0 113.408-91.904 205.312-205.312 205.312z" fill="#1E1E1E" p-id="2371"></path><path d="M423.936 570.88c-0.256 0.768-5.504 17.792-18.048 36.352-10.88 15.744-22.272 31.744-40.064 32.128-17.664 0.256-23.296-10.496-43.264-10.496s-26.24 10.112-42.88 10.752c-17.152 0.768-30.336-17.152-41.472-33.024-14.976-21.632-27.52-55.04-27.52-87.04 0-16 3.2-31.616 10.88-45.056 11.52-19.84 32-32.384 54.272-32.768 17.024-0.256 33.024 11.52 43.264 11.52 10.368 0 29.696-13.696 50.176-11.776 8.448 0.384 32.384 3.84 47.744 26.24-1.152 0.768-28.544 2.176-28.16 50.816h-0.256c0.512 32.768 34.816 52.224 35.328 52.352z" fill="#8B8B8E" p-id="2372"></path><path d="M317.312 443.264c0-35.968 29.312-65.408 65.536-65.408 0 36.096-29.312 65.408-65.536 65.408z" fill="#8B8B8E" p-id="2373"></path><path d="M423.936 570.88c-0.256 0.768-5.504 17.792-18.048 36.352-10.88 15.744-22.272 31.744-40.064 32.128-17.664 0.256-23.296-10.496-43.264-10.496s-26.24 10.112-42.88 10.752c-17.152 0.768-30.336-17.152-41.472-33.024-14.976-21.632-27.52-55.04-27.52-87.04 0-16 3.2-31.616 10.88-45.056 11.52-19.84 32-32.384 54.272-32.768 17.024-0.256 33.024 11.52 43.264 11.52 10.368 0 29.696-13.696 50.176-11.776 8.448 0.384 32.384 3.84 47.744 26.24-1.152 0.768-28.544 2.176-28.16 50.816h-0.256c0.512 32.768 34.816 52.224 35.328 52.352z" fill="#8B8B8E" p-id="2374"></path><path d="M382.848 377.856c0 35.968-29.312 65.408-65.536 65.408 0-36.096 29.312-65.408 65.536-65.408zM608.384 633.728c-7.296 3.968-17.28 6.016-29.824 6.016-34.176 0-51.2-18.944-51.2-56.704v-110.08h-32.768v-27.904H527.36v-45.824l33.664-0.256v46.08h47.36v27.904h-47.36v104.064c0 12.544 2.176 21.504 6.4 26.88s11.264 8.064 21.248 8.064c7.552 0 14.208-2.176 19.84-6.4v28.16zM812.928 449.152l-75.52 190.592h-34.176l-71.68-190.592h36.864l46.592 136.064c3.84 10.88 6.016 20.096 6.656 27.392h0.896c1.152-9.6 3.2-18.56 6.016-26.752l48.768-136.832h35.584z" fill="#8B8B8E" p-id="2375"></path></svg>