<svg viewBox="0 0 1024 1024" fill="none" xmlns="http://www.w3.org/2000/svg">
<path d="M761.472 963.84H262.016C148.608 963.84 56.704 871.936 56.704 758.528V259.072C56.704 145.664 148.608 53.76 262.016 53.76H761.472C874.88 53.76 966.784 145.664 966.784 259.072V758.528C966.784 871.936 874.88 963.84 761.472 963.84Z" fill="#1E1E1E"/>
<path d="M594.895 679.857C599.78 679.857 604.466 678.062 607.92 674.868C611.375 671.673 613.316 667.34 613.316 662.821C613.316 658.303 611.375 653.97 607.92 650.775C604.466 647.581 599.78 645.786 594.895 645.786V679.857ZM429.105 645.786C424.22 645.786 419.534 647.581 416.08 650.775C412.625 653.97 410.684 658.303 410.684 662.821C410.684 667.34 412.625 671.673 416.08 674.868C419.534 678.062 424.22 679.857 429.105 679.857V645.786ZM594.895 271H429.105V305.071H594.895V271ZM373.842 662.821V356.179H337V662.821H373.842ZM594.895 713.929H429.105V748H594.895V713.929ZM687 662.821V356.179H650.158V662.821H687ZM594.895 748C619.323 748 642.75 739.026 660.023 723.052C677.296 707.078 687 685.412 687 662.821H650.158C650.158 676.376 644.336 689.375 633.972 698.96C623.608 708.544 609.551 713.929 594.895 713.929V748ZM594.895 305.071C609.551 305.071 623.608 310.456 633.972 320.04C644.336 329.625 650.158 342.624 650.158 356.179H687C687 333.588 677.296 311.922 660.023 295.948C642.75 279.974 619.323 271 594.895 271V305.071ZM429.105 271C404.677 271 381.25 279.974 363.977 295.948C346.704 311.922 337 333.588 337 356.179H373.842C373.842 342.624 379.664 329.625 390.028 320.04C400.392 310.456 414.449 305.071 429.105 305.071V271ZM337 662.821C337 685.412 346.704 707.078 363.977 723.052C381.25 739.026 404.677 748 429.105 748V713.929C414.449 713.929 400.392 708.544 390.028 698.96C379.664 689.375 373.842 676.376 373.842 662.821H337ZM429.105 679.857H594.895V645.786H429.105V679.857Z" fill="#8B8B8E"/>
</svg>
