<svg viewBox="0 0 1024 1024" fill="none" xmlns="http://www.w3.org/2000/svg">
<path d="M761.768 964.08H262.312C148.904 964.08 57 872.176 57 758.768V259.312C57 145.904 148.904 54 262.312 54H761.768C875.176 54 967.08 145.904 967.08 259.312V758.768C967.08 872.176 875.176 964.08 761.768 964.08Z" fill="#1E1E1E"/>
<path d="M291.937 704H596.678C590.423 695.723 586.43 686.195 585.033 676.216L584.357 663.049H294.667C273.431 663.049 261.786 652.829 261.786 632.555V385.231C261.786 364.957 273.431 354.951 294.667 354.951H684.638C705.432 354.951 717.311 364.957 717.311 385.231V391.506H762.097V381.88C762.097 337.197 736.728 314 687.159 314H291.937C242.577 314 217 337.173 217 381.88V636.12C217 680.803 242.811 704 291.937 704ZM656.306 704H763.448C791.547 704 808 689.169 808 664.308V456.462C808 431.601 791.547 416.77 763.448 416.77H656.306C627.973 416.77 611.078 431.601 611.078 456.462V664.308C611.078 689.169 627.973 704 656.306 704ZM658.593 672.675C649.469 672.675 644.661 668.278 644.661 659.507V461.287C644.661 452.493 649.469 447.906 658.593 447.906H667.275C668.184 447.906 668.652 448.524 668.652 449.356V451.257C668.652 458.554 674.111 463.569 681.909 463.569H737.195C738.985 463.636 740.771 463.363 742.44 462.766C744.109 462.17 745.624 461.263 746.889 460.104C748.155 458.944 749.143 457.557 749.792 456.03C750.441 454.503 750.737 452.87 750.66 451.233V449.356C750.66 448.524 751.128 447.906 751.803 447.906H760.485C769.842 447.906 774.651 452.707 774.651 461.477V659.293C774.651 668.087 769.868 672.675 760.485 672.675H658.593ZM401.134 646.34H583.655V625.876H401.134C394.505 625.876 389.957 629.846 389.957 636.096C389.957 642.371 394.505 646.34 401.134 646.34ZM678.478 661.599H740.393C745.175 661.599 748.606 658.676 748.606 654.279C748.646 653.282 748.461 652.289 748.063 651.362C747.664 650.434 747.06 649.591 746.29 648.886C745.519 648.181 744.597 647.63 743.583 647.265C742.568 646.901 741.482 646.731 740.393 646.768H678.451C677.377 646.751 676.311 646.935 675.317 647.309C674.324 647.683 673.424 648.238 672.674 648.942C671.924 649.645 671.34 650.482 670.957 651.4C670.573 652.317 670.399 653.297 670.446 654.279C670.446 658.676 673.643 661.599 678.451 661.599H678.478Z" fill="#8B8B8E"/>
</svg>
