<?xml version="1.0" standalone="no"?><!DOCTYPE svg PUBLIC "-//W3C//DTD SVG 1.1//EN" "http://www.w3.org/Graphics/SVG/1.1/DTD/svg11.dtd"><svg t="1767513114290" class="icon" viewBox="0 0 1024 1024" version="1.1" xmlns="http://www.w3.org/2000/svg" p-id="95660" xmlns:xlink="http://www.w3.org/1999/xlink"><path d="M511.4368 512m-446.3328 0a446.3328 446.3328 0 1 0 892.6656 0 446.3328 446.3328 0 1 0-892.6656 0Z" fill="currentColor" p-id="95661"></path><path d="M286.72 417.8432a256.256 256.256 0 0 0-207.36 105.0624 432.3328 432.3328 0 0 0 285.952 396.032A256.768 256.768 0 0 0 286.72 417.8432z" fill="currentColor" p-id="95662"></path><path d="M342.6304 427.9808h6.7584v293.632h-6.7584a65.3824 65.3824 0 0 1-65.3824-65.3824V493.312a65.3824 65.3824 0 0 1 65.3824-65.3312z" fill="#FFFFFF" p-id="95663"></path><path d="M710.656 390.9632h-136.7552c10.5984-34.9696 24.8832-106.8032-25.088-137.1648C525.312 239.616 469.9136 229.632 471.04 291.84s-2.2528 130.4064-81.1008 136.192v293.632h280.2688a66.8672 66.8672 0 0 0 65.4848-53.4528l40.448-197.1712a66.816 66.816 0 0 0-65.4848-80.0768z" fill="#FFFFFF" p-id="95664"></path></svg>