<?xml version="1.0" encoding="utf-8"?><!-- Uploaded to: SVG Repo, www.svgrepo.com, Generator: SVG Repo Mixer Tools -->
<svg fill="#000000" viewBox="0 0 56 56" xmlns="http://www.w3.org/2000/svg"><path d="M 27.9999 51.9063 C 41.0546 51.9063 51.9063 41.0781 51.9063 28 C 51.9063 14.9453 41.0312 4.0937 27.9765 4.0937 C 14.8983 4.0937 4.0937 14.9453 4.0937 28 C 4.0937 41.0781 14.9218 51.9063 27.9999 51.9063 Z M 27.9999 35.9922 C 20.9452 35.9922 15.5077 38.5 13.1405 41.3125 C 9.9999 37.7968 8.1014 33.1328 8.1014 28 C 8.1014 16.9609 16.9140 8.0781 27.9765 8.0781 C 39.0155 8.0781 47.8983 16.9609 47.9219 28 C 47.9219 33.1563 46.0234 37.8203 42.8593 41.3359 C 40.4921 38.5234 35.0546 35.9922 27.9999 35.9922 Z M 27.9999 32.0078 C 32.4999 32.0547 36.0390 28.2109 36.0390 23.1719 C 36.0390 18.4375 32.4765 14.5 27.9999 14.5 C 23.4999 14.5 19.9140 18.4375 19.9609 23.1719 C 19.9843 28.2109 23.4765 31.9609 27.9999 32.0078 Z"/></svg>