<?xml version="1.0" encoding="utf-8"?><!-- Uploaded to: SVG Repo, www.svgrepo.com, Generator: SVG Repo Mixer Tools -->
<svg fill="#000000" viewBox="0 0 56 56" xmlns="http://www.w3.org/2000/svg"><path d="M 36.4023 19.3164 C 38.8398 19.3164 40.9257 17.7461 41.6992 15.5898 L 49.8085 15.5898 C 50.7695 15.5898 51.6133 14.7461 51.6133 13.6914 C 51.6133 12.6367 50.7695 11.8164 49.8085 11.8164 L 41.7226 11.8164 C 40.9257 9.6367 38.8398 8.0430 36.4023 8.0430 C 33.9648 8.0430 31.8789 9.6367 31.1054 11.8164 L 6.2851 11.8164 C 5.2304 11.8164 4.3867 12.6367 4.3867 13.6914 C 4.3867 14.7461 5.2304 15.5898 6.2851 15.5898 L 31.1054 15.5898 C 31.8789 17.7461 33.9648 19.3164 36.4023 19.3164 Z M 36.4023 16.4336 C 34.8789 16.4336 33.6601 15.2148 33.6601 13.6679 C 33.6601 12.1211 34.8789 10.9258 36.4023 10.9258 C 37.9492 10.9258 39.1445 12.1211 39.1445 13.6679 C 39.1445 15.2148 37.9492 16.4336 36.4023 16.4336 Z M 6.1913 26.1133 C 5.2304 26.1133 4.3867 26.9570 4.3867 28.0117 C 4.3867 29.0664 5.2304 29.8867 6.1913 29.8867 L 14.5586 29.8867 C 15.3320 32.0898 17.4179 33.6601 19.8554 33.6601 C 22.3164 33.6601 24.4023 32.0898 25.1757 29.8867 L 49.7149 29.8867 C 50.7695 29.8867 51.6133 29.0664 51.6133 28.0117 C 51.6133 26.9570 50.7695 26.1133 49.7149 26.1133 L 25.1757 26.1133 C 24.3789 23.9570 22.2929 22.3867 19.8554 22.3867 C 17.4413 22.3867 15.3554 23.9570 14.5586 26.1133 Z M 19.8554 30.7539 C 18.3320 30.7539 17.1132 29.5352 17.1132 28.0117 C 17.1132 26.4648 18.3320 25.2695 19.8554 25.2695 C 21.4257 25.2695 22.5976 26.4648 22.5976 28.0117 C 22.5976 29.5352 21.4257 30.7539 19.8554 30.7539 Z M 36.4023 47.9570 C 38.8398 47.9570 40.9257 46.3867 41.6992 44.2070 L 49.8085 44.2070 C 50.7695 44.2070 51.6133 43.3867 51.6133 42.3320 C 51.6133 41.2773 50.7695 40.4336 49.8085 40.4336 L 41.6992 40.4336 C 40.9257 38.2539 38.8398 36.7070 36.4023 36.7070 C 33.9648 36.7070 31.8789 38.2539 31.1054 40.4336 L 6.2851 40.4336 C 5.2304 40.4336 4.3867 41.2773 4.3867 42.3320 C 4.3867 43.3867 5.2304 44.2070 6.2851 44.2070 L 31.1054 44.2070 C 31.8789 46.3867 33.9648 47.9570 36.4023 47.9570 Z M 36.4023 45.0742 C 34.8789 45.0742 33.6601 43.8555 33.6601 42.3320 C 33.6601 40.7617 34.8789 39.5898 36.4023 39.5898 C 37.9492 39.5898 39.1445 40.7617 39.1445 42.3320 C 39.1445 43.8555 37.9492 45.0742 36.4023 45.0742 Z"/></svg>