<svg xmlns="http://www.w3.org/2000/svg" xmlns:xlink="http://www.w3.org/1999/xlink" viewBox="0 0 24 24"><g fill="none"><path d="M10.91 2.782a2.25 2.25 0 0 1 2.975.74l.083.138l7.759 14.009a2.25 2.25 0 0 1-1.814 3.334l-.154.006H4.243a2.25 2.25 0 0 1-2.041-3.197l.072-.143L10.031 3.66a2.25 2.25 0 0 1 .878-.878zm9.505 15.613l-7.76-14.008a.75.75 0 0 0-1.254-.088l-.057.088l-7.757 14.008a.75.75 0 0 0 .561 1.108l.095.006h15.516a.75.75 0 0 0 .696-1.028l-.04-.086l-7.76-14.008l7.76 14.008zM12 16.002a.999.999 0 1 1 0 1.997a.999.999 0 0 1 0-1.997zM11.995 8.5a.75.75 0 0 1 .744.647l.007.102l.004 4.502a.75.75 0 0 1-1.494.103l-.006-.102l-.004-4.502a.75.75 0 0 1 .75-.75z" fill="currentColor"></path></g></svg>